PathFileType	4	(X/Y/Z)	RBDS024\RBDS024runT45.trc
DataRate	CameraRate	NumFrames	NumMarkers	Units	OrigDataRate	OrigDataStartFrame	OrigNumFrames
150.000000	150.000000	4	32	mm	150.000000	1687	4500
Frame#	Time	L.ASIS			L.Heel.Bottom			L.Heel.Lateral			L.Heel.Top			L.Iliac.Crest			L.MT5			L.PSIS			L.Shank.Bottom.Lateral			L.Shank.Bottom.Medial			L.Shank.Top.Lateral			L.Shank.Top.Medial			L.Thigh.Bottom.Lateral			L.Thigh.Bottom.Medial			L.Thigh.Top.Lateral			L.Thigh.Top.Medial			R.ASIS			R.ASY			R.Heel.Bottom			R.Heel.Lateral			R.Heel.Top			R.Iliac.Crest			R.MT1			R.MT5			R.PSIS			R.Shank.Bottom.Lateral			R.Shank.Bottom.Medial			R.Shank.Top.Lateral			R.Shank.Top.Medial			R.Thigh.Bottom.Lateral			R.Thigh.Bottom.Medial			R.Thigh.Top.Lateral			R.Thigh.Top.Medial			
		X1	Y1	Z1	X2	Y2	Z2	X3	Y3	Z3	X4	Y4	Z4	X5	Y5	Z5	X6	Y6	Z6	X7	Y7	Z7	X8	Y8	Z8	X9	Y9	Z9	X10	Y10	Z10	X11	Y11	Z11	X12	Y12	Z12	X13	Y13	Z13	X14	Y14	Z14	X15	Y15	Z15	X16	Y16	Z16	X17	Y17	Z17	X18	Y18	Z18	X19	Y19	Z19	X20	Y20	Z20	X21	Y21	Z21	X22	Y22	Z22	X23	Y23	Z23	X24	Y24	Z24	X25	Y25	Z25	X26	Y26	Z26	X27	Y27	Z27	X28	Y28	Z28	X29	Y29	Z29	X30	Y30	Z30	X31	Y31	Z31	X32	Y32	Z32	

1688	11.24666666666667	2050.981296632484	962.4935387302247	897.4755404915031	1417.229090933044	196.8940833081069	1008.06372844167	1437.763411615757	190.1961002857706	960.5056634745328	1452.715446884774	220.7811952493568	999.3325255195539	1973.28731388966	1042.217651346964	860.2084804973347	1526.357957808376	61.59487204526679	916.0657594228427	1884.677372284356	1021.163310681093	987.1192062417591	1549.680069969044	256.7806657622005	925.8858891593237	1522.650609428043	282.9474284753587	960.0714411289152	1590.6433850318	322.6856401891228	902.0814194884666	1565.311658344887	353.0627262496551	937.5623998168733	1811.445926350375	635.407769108058	860.5305240518335	1765.60195253165	654.5316455396534	911.9957458707664	1838.862135063875	741.9082230141761	850.5167643350134	1800.246537783687	758.9769971021475	904.0980094271778	2078.534800379979	979.1200244159676	1124.637040718439	2159.513095525635	179.2110242350243	1098.940737917811	1974.106511614265	214.0496180027073	1058.435465589528	2002.581514123806	220.2405530728242	1108.44177786071	2001.205840226753	249.0914728946195	1060.246084480542	2013.930793928424	1054.405057194872	1190.219268818215	2174.489101096817	120.619107046644	1053.37320394745	2133.27811908899	137.8126307074616	1159.922643205117	1896.053538725892	1018.105858593019	1089.374172039074	2088.957902454248	320.0048057681267	1125.388600915523	2060.070577167269	339.5715899615089	1082.15404511043	2117.42424150421	395.595918684867	1137.644091040095	2088.999577565663	413.3761317744103	1095.73223765038	2201.036884792178	683.1869981017885	1172.820891148092	2154.814469134001	641.153132377265	1135.102509153778	2116.788221123978	748.9219926256284	1197.696896765195	2073.04390276587	706.5089075975953	1165.078944435315	
1689	11.25333333333333	2053.869959906873	964.3952826441812	898.7012438830592	1405.39399225862	215.1516953096453	1007.615654223111	1424.347681189099	206.2999356806037	959.7535747993472	1442.57352110037	235.9016305337794	997.7727941614331	1981.392088182415	1044.942778412807	859.9787787268602	1501.391340983822	69.54257146006195	915.4808078927815	1887.412145079154	1026.149600023912	985.7453159381976	1535.970290618477	267.9709257516516	924.1569136589502	1509.936291251004	293.4545197462753	959.7062864774083	1577.177642894269	334.1373456281119	901.4175380917084	1552.901231678733	363.7356588925981	938.3644504691933	1804.012054197182	643.7522427311686	861.8950036294923	1759.810202701605	664.0696799228034	914.3665886002375	1834.748633303093	749.4312639564115	852.0351276010589	1797.892616374168	767.3977220369226	906.5815619948689	2079.567392671097	985.0589411798396	1124.173504678948	2191.290377481364	173.4631443668542	1097.552895937192	2003.692224380402	192.6060333086826	1057.396572332009	2031.411041603149	201.0416159555829	1107.42582957144	2027.63127299665	229.818862491333	1059.312852688071	2015.773285277238	1061.505145207501	1189.098887508598	2211.089059520141	116.5108381247662	1051.693397958051	2168.559534720993	129.8428809543014	1158.431830115833	1897.836474881011	1023.281962497856	1088.213605691472	2109.235440925261	307.9251930081063	1124.624453493851	2079.284414988047	325.0726834148699	1081.072011174145	2131.668870923722	385.478888735803	1136.994724035769	2102.366021004514	400.8835479417343	1094.759302650639	2200.108151387999	686.3847637037019	1171.827149712134	2152.768061258302	644.2189113211363	1135.701028545904	2116.855802356299	753.0425216219353	1197.291612831511	2072.103443283364	710.8351131013324	1165.811199617264	
1690	11.26	2056.525859818177	966.3539066203149	899.8613886356771	1394.789290907286	233.859386295278	1007.616159416732	1411.993421141206	223.1656178550113	959.4421506597995	1433.444982504308	251.4833453391218	996.7184755733567	1988.686676504142	1047.522886158335	859.878954572869	1477.364632887294	79.3263417105516	914.931273787896	1889.982466843965	1031.023456080052	984.49088045996	1523.359210945897	279.4265168264471	922.7727625790004	1498.350533900288	304.3878812492856	959.5321528059726	1565.083963802961	345.6031137392877	900.9465013742556	1541.932615656577	374.5646055818747	939.2047504917321	1797.719722806386	651.5310880482332	863.1484700456116	1755.065474137717	672.6747063407734	916.5992204181487	1831.183751639139	756.4669524304029	853.573845831954	1796.004424683781	775.0107078195701	909.0605781260964	2080.386022432199	990.4043688248602	1123.785968437482	2222.735620667739	169.0930555138507	1095.676793890318	2034.248496495594	172.4356124561487	1056.47844639886	2061.224641966189	182.8874853121608	1106.464897049018	2054.83092709313	211.527511813028	1058.580604283334	2017.153502576786	1068.088821264161	1187.938426896903	2247.011902545082	114.4219131953475	1049.238014900682	2203.971936186507	123.3687356089562	1156.317843169983	1899.557035827707	1028.175867896093	1087.084535368744	2129.807223998757	296.2067732314364	1124.001962732433	2098.884920293949	310.9724306444415	1080.26385650388	2146.121727646818	375.1686207273036	1136.671459530432	2115.996915239536	388.2630615345607	1094.24682999482	2198.310751684458	688.3246603896135	1171.048943472475	2149.707654510372	646.1374090570584	1136.636723535506	2116.333550025267	756.2532942352451	1196.928628533444	2070.437016736354	714.3797734778155	1166.646632781661	
1691	11.26666666666667	2058.891750075375	968.4108165395467	900.9021316446011	1385.092847095872	252.8901742134866	1008.106066802739	1400.49423032144	240.7158337031157	959.6251815628286	1424.988168627359	267.4986752131447	996.2681694478308	1994.932168881323	1050.068585900092	859.8964759646573	1454.456613574076	91.00354353616434	914.4774635894204	1892.338518446287	1035.712231798477	983.4048211376734	1511.699157654583	291.2042250132657	921.8574504627908	1487.746294232014	315.862179751162	959.6324294523768	1554.275903998808	357.0721434040828	900.7493437375604	1532.314813982333	385.6001122094276	940.1148574406549	1792.657753433694	658.5409912634568	864.242314263207	1751.379506383695	680.1838875158235	918.5922998483269	1828.242003533977	762.8470921490047	855.0344982280189	1794.559099180767	781.6969216901336	911.375923372319	2080.976428139135	995.0153723575403	1123.468174923561	2253.532361782389	166.1847059916733	1093.368670579875	2065.457426876874	153.7648361252207	1055.586841321942	2091.744096215379	166.0034484925441	1105.482008425239	2082.530337721118	194.4152943727615	1057.991968095891	2018.056388527636	1073.999133942166	1186.779717532175	2281.871692901719	114.4030916849649	1046.068148973152	2239.191020466876	118.5238175525291	1153.589818152126	1901.18448782405	1032.721947117924	1086.055820947937	2150.460584235549	285.0161208373625	1123.517428417862	2118.645208031674	297.4512111851975	1079.718873476219	2160.631159923699	364.8236097304041	1136.68455996663	2129.724038290168	375.6863654632979	1094.201073417895	2195.644162971613	688.9729746922053	1170.606326323697	2145.702515676836	646.9396244317395	1137.872488025699	2115.194326963669	758.4839051005627	1196.698491843345	2068.082547245719	717.1097957691194	1167.548890160988	
